<svg version="1" xmlns="http://www.w3.org/2000/svg" width="400" height="400" viewBox="0 0 300.000000 300.000000"><path d="M91 44.6C58.8 63 32 78.4 31.4 78.8c-.8.5-1.3 20.5-1.8 69.7l-.7 69 59.6 34.8 59.7 34.8 29.1-16.5c16.1-9.1 42.9-24.4 59.7-33.9l30.5-17.4.7-48.9c.4-26.9.7-58.1.5-69.3l-.2-20.4-59.4-34.9c-32.7-19.1-59.5-34.8-59.5-34.7-.1 0-26.4 15.1-58.6 33.5zm115.1 4.5c31 18.2 57 33.6 57.6 34.3 1 .9 1.1 15.3.6 67.6l-.6 66.5-57.8 32.8c-31.8 18.1-58.2 32.7-58.6 32.4-.4-.2-26.3-15.4-57.6-33.7L33 215.7l.2-66.9.3-66.9L91.4 49c31.9-18.2 58.1-33 58.1-33 .1 0 25.6 14.9 56.6 33.1z"/><path d="M100 61.5L50.5 89.8l-.7 24.3c-.5 13.4-.7 39.6-.5 58.3l.2 33.8 49 28.9c27 15.8 49.6 28.8 50.2 28.9.7 0 23.5-12.6 50.6-28l49.4-28.1.6-35.2c.4-19.4.7-45.6.7-58.2l-.1-23-49.6-29c-27.2-16-49.8-29.1-50.2-29.1-.3-.1-22.9 12.5-50.1 28.1zm133.4 49c4.1 2 6.6 6.3 6.6 11.4 0 3.3-.6 4.7-3.5 7.6-3 2.9-4.3 3.5-7.9 3.5-12.9 0-17-17.5-5.3-22.5 4.2-1.8 6.2-1.8 10.1 0zm-69.3 37c3.5 1.8 6.9 7 6.9 10.3 0 3.8-3 9.2-6.1 10.7-8.5 4.4-17.9-1.2-17.9-10.7 0-4 2.1-7.3 6.4-9.9 3.8-2.3 6.7-2.4 10.7-.4zm68.8 2.9c2.7 1.4 5.1 5.3 5.1 8.2 0 2.6-3.2 7.2-5.7 8.3-4 1.8-6.3 1.3-9.9-2.3-4.8-4.8-4.2-10.4 1.4-13.9 3.3-2 5.5-2.1 9.1-.3zm-32.5 20.7c3.5 4.1 3.4 8.3-.3 12-3.2 3.2-8.2 3.9-11.3 1.5-7.4-5.6-3.9-16.5 5.4-16.6 2.8 0 4.2.7 6.2 3.1zm33 13.4c4.1 2 6.6 6.3 6.6 11.5 0 6-5 11-11 11-2.3 0-5.5-.8-7.1-1.7-3-1.8-5.9-6.7-5.9-10s3.6-8.6 7.1-10.5c4.1-2.2 6.1-2.3 10.3-.3zm-68.3 4.4c7.4 7.5-.8 19.4-10 14.7-6.8-3.6-7-12.4-.3-16 4.1-2.3 7.1-1.9 10.3 1.3zm35.8 15.7c1.7 1.4 3.6 4.3 4.2 6.4 1 3.3.9 4.4-.8 7.7-3.9 7.7-13.2 9.3-19.3 3.2-2.5-2.6-3-3.8-3-8.1 0-4.5.4-5.4 3.6-8.4 4.6-4.4 10.6-4.7 15.3-.8zm-36 20c5.1 4.3 4.1 11.8-2 15-9.1 4.6-17.3-7.4-10-14.7 3.7-3.7 7.9-3.8 12-.3z"/><path d="M224.2 117.2c-3 3-.1 9.8 4.1 9.8 2.3 0 5.7-3.6 5.7-5.9 0-4.2-6.8-6.9-9.8-3.9zM154.5 155.4c-2 2.9-1.3 6.1 1.7 7.7 2.8 1.5 6.3.4 7.5-2.4 2.8-6-5.6-10.8-9.2-5.3zM224 191.9c-1.5 3-1.2 5.6 1 7.6 4.6 4.1 11.6-2.9 7.5-7.5-2.3-2.6-7.1-2.6-8.5-.1zM190 210c-3.8 3.8-1.5 9 4 9 5 0 6.9-6.6 2.8-9.4-3-2.1-4.4-2-6.8.4z"/></svg>